<svg width="30" height="30" viewBox="0 0 30 30" fill="none" xmlns="http://www.w3.org/2000/svg">
<path d="M13.5 5.823V25.86C13.4996 26.4817 13.2797 27.0833 12.8792 27.5588C12.4787 28.0343 11.9232 28.3532 11.3107 28.4594C10.6981 28.5655 10.0677 28.452 9.53059 28.139C8.99346 27.8259 8.58406 27.3333 8.3745 26.748L5.154 17.523M24 16.5C25.1935 16.5 26.3381 16.0259 27.182 15.182C28.0259 14.3381 28.5 13.1935 28.5 12C28.5 10.8065 28.0259 9.66193 27.182 8.81802C26.3381 7.97411 25.1935 7.5 24 7.5M5.154 17.5245C3.88082 16.9832 2.83377 16.0186 2.19004 14.794C1.54631 13.5694 1.34543 12.16 1.6214 10.8043C1.89737 9.44868 2.63324 8.22998 3.70447 7.3545C4.77571 6.47902 6.11652 6.00053 7.5 6H10.248C16.398 6 21.6855 4.149 24 1.5V22.5C21.6855 19.851 16.3995 18 10.248 18H7.5C6.69395 18.0012 5.89597 17.8394 5.154 17.5245V17.5245Z" stroke="#5596AA" stroke-width="3" stroke-linecap="round" stroke-linejoin="round"/>
</svg>
