<svg width="28" height="30" viewBox="0 0 28 30" fill="none" xmlns="http://www.w3.org/2000/svg">
<path d="M3.5 30.0002C2.675 30.0002 1.9685 29.7067 1.3805 29.1197C0.7935 28.5317 0.5 27.8252 0.5 27.0002V20.1752L4.625 15.4877L6.7625 17.6252L3.7625 21.0002H24.2375L21.3125 17.7002L23.45 15.5627L27.5 20.1752V27.0002C27.5 27.8252 27.2065 28.5317 26.6195 29.1197C26.0315 29.7067 25.325 30.0002 24.5 30.0002H3.5ZM3.5 27.0002H24.5V24.0002H3.5V27.0002ZM11.9375 18.5627L6.65 13.2752C6.075 12.7002 5.794 11.9942 5.807 11.1572C5.819 10.3192 6.1125 9.61269 6.6875 9.03769L14.0375 1.6877C14.6125 1.1127 15.325 0.812695 16.175 0.787695C17.025 0.762695 17.7375 1.0377 18.3125 1.6127L23.6 6.9002C24.175 7.4752 24.475 8.1752 24.5 9.0002C24.525 9.8252 24.25 10.5252 23.675 11.1002L16.175 18.6002C15.6 19.1752 14.894 19.4562 14.057 19.4432C13.219 19.4312 12.5125 19.1377 11.9375 18.5627ZM21.5 9.03769L16.2125 3.7502L8.7875 11.1752L14.075 16.4627L21.5 9.03769ZM3.5 27.0002V24.0002V27.0002Z" fill="#5596AA"/>
</svg>
