<svg width="36" height="36" viewBox="0 0 36 36" fill="none" xmlns="http://www.w3.org/2000/svg">
<g clip-path="url(#clip0_1444_1369)">
<path d="M18 36C27.9411 36 36 27.9411 36 18C36 8.05887 27.9411 0 18 0C8.05887 0 0 8.05887 0 18C0 27.9411 8.05887 36 18 36Z" fill="#F5F8FA"/>
<path d="M18 10.9999C17.7348 10.9999 17.4804 10.8946 17.2929 10.707C17.1054 10.5195 17 10.2651 17 9.99991V2.99991C17 2.7347 17.1054 2.48034 17.2929 2.29281C17.4804 2.10527 17.7348 1.99991 18 1.99991C18.2652 1.99991 18.5196 2.10527 18.7071 2.29281C18.8946 2.48034 19 2.7347 19 2.99991V9.99991C19 10.2651 18.8946 10.5195 18.7071 10.707C18.5196 10.8946 18.2652 10.9999 18 10.9999ZM11.417 15.4999C11.3145 15.5 11.2126 15.4841 11.115 15.4529L3.074 12.9109C2.82111 12.831 2.61035 12.6538 2.48808 12.4184C2.3658 12.1831 2.34203 11.9088 2.422 11.6559C2.50196 11.403 2.6791 11.1923 2.91446 11.07C3.14982 10.9477 3.42411 10.924 3.677 11.0039L11.719 13.5459C11.9471 13.6176 12.142 13.7687 12.2683 13.9717C12.3946 14.1748 12.444 14.4163 12.4075 14.6527C12.3709 14.889 12.2509 15.1044 12.0692 15.2598C11.8875 15.4153 11.6561 15.5004 11.417 15.4999ZM25.042 15.2089C24.8018 15.2076 24.5701 15.12 24.3892 14.962C24.2082 14.804 24.0901 14.5862 24.0564 14.3484C24.0227 14.1106 24.0756 13.8686 24.2055 13.6666C24.3354 13.4645 24.5336 13.3159 24.764 13.2479L31.514 11.2899C31.7676 11.2199 32.0385 11.2527 32.2681 11.3811C32.4977 11.5095 32.6674 11.7232 32.7406 11.9759C32.8137 12.2285 32.7843 12.4999 32.6588 12.731C32.5333 12.9622 32.3217 13.1346 32.07 13.2109L25.32 15.1689C25.2297 15.1954 25.1361 15.2089 25.042 15.2089ZM27.043 30.1669C26.887 30.167 26.7331 30.1306 26.5937 30.0607C26.4543 29.9907 26.3331 29.8891 26.24 29.7639L20.781 22.4309C20.6995 22.3258 20.6398 22.2055 20.6054 22.0771C20.5709 21.9487 20.5625 21.8146 20.5804 21.6829C20.5984 21.5511 20.6425 21.4243 20.7101 21.3098C20.7777 21.1953 20.8675 21.0954 20.9741 21.016C21.0808 20.9366 21.2022 20.8792 21.3313 20.8473C21.4604 20.8154 21.5946 20.8096 21.726 20.8302C21.8573 20.8507 21.9833 20.8973 22.0965 20.9672C22.2096 21.037 22.3077 21.1287 22.385 21.2369L27.844 28.5699C27.9546 28.7186 28.0218 28.895 28.0379 29.0796C28.0541 29.2642 28.0187 29.4496 27.9356 29.6152C27.8526 29.7809 27.7251 29.9202 27.5675 30.0176C27.4099 30.115 27.2283 30.1667 27.043 30.1669ZM8.749 30.0839C8.5664 30.0837 8.38734 30.0336 8.23124 29.9389C8.07513 29.8441 7.94793 29.7085 7.86344 29.5466C7.77895 29.3848 7.74039 29.2029 7.75195 29.0206C7.76351 28.8384 7.82474 28.6628 7.929 28.5129L13.054 21.1379C13.1276 21.0269 13.2226 20.9317 13.3334 20.8579C13.4443 20.7841 13.5688 20.7331 13.6996 20.7081C13.8304 20.6831 13.9649 20.6844 14.0951 20.712C14.2254 20.7397 14.3489 20.7931 14.4583 20.8691C14.5676 20.9451 14.6607 21.0421 14.732 21.1546C14.8034 21.2671 14.8515 21.3926 14.8737 21.524C14.8958 21.6553 14.8915 21.7897 14.861 21.9194C14.8305 22.049 14.7744 22.1712 14.696 22.2789L9.571 29.6539C9.47915 29.7869 9.35632 29.8955 9.21311 29.9705C9.06991 30.0454 8.91062 30.0843 8.749 30.0839ZM3.5 27.0619C3.06 27.0619 2.656 26.7689 2.535 26.3239L0.346996 18.2619C0.312656 18.1351 0.303625 18.0028 0.320419 17.8725C0.337213 17.7422 0.379504 17.6165 0.444876 17.5026C0.510249 17.3887 0.597423 17.2887 0.701421 17.2085C0.805419 17.1282 0.924205 17.0693 1.051 17.0349C1.17779 17.0006 1.3101 16.9915 1.44038 17.0083C1.57066 17.0251 1.69636 17.0674 1.8103 17.1328C1.92424 17.1982 2.02418 17.2853 2.10443 17.3893C2.18468 17.4933 2.24366 17.6121 2.278 17.7389L4.466 25.8009C4.50652 25.9492 4.51222 26.1049 4.48265 26.2558C4.45308 26.4067 4.38904 26.5488 4.29553 26.6708C4.20202 26.7929 4.08156 26.8917 3.94357 26.9595C3.80557 27.0274 3.65376 27.0624 3.5 27.0619ZM22 33.9999H13C12.7348 33.9999 12.4804 33.8946 12.2929 33.707C12.1054 33.5195 12 33.2651 12 32.9999C12 32.7347 12.1054 32.4803 12.2929 32.2928C12.4804 32.1053 12.7348 31.9999 13 31.9999H22C22.2652 31.9999 22.5196 32.1053 22.7071 32.2928C22.8946 32.4803 23 32.7347 23 32.9999C23 33.2651 22.8946 33.5195 22.7071 33.707C22.5196 33.8946 22.2652 33.9999 22 33.9999ZM32.126 27.1249C31.9743 27.1251 31.8245 27.0907 31.688 27.0244C31.5516 26.9581 31.432 26.8616 31.3384 26.7421C31.2448 26.6227 31.1797 26.4835 31.1479 26.3352C31.1161 26.1868 31.1185 26.0332 31.155 25.8859L33.28 17.2609C33.3084 17.1303 33.3627 17.0067 33.4397 16.8975C33.5167 16.7882 33.6148 16.6955 33.7282 16.6248C33.8417 16.5541 33.9681 16.5069 34.1001 16.4859C34.2321 16.4649 34.367 16.4706 34.4967 16.5026C34.6265 16.5346 34.7485 16.5923 34.8556 16.6723C34.9627 16.7523 35.0526 16.853 35.1202 16.9683C35.1877 17.0837 35.2314 17.2114 35.2487 17.3439C35.266 17.4764 35.2566 17.6111 35.221 17.7399L33.096 26.3649C32.983 26.8199 32.575 27.1249 32.126 27.1249ZM30.312 7.68791C30.1364 7.688 29.964 7.64178 29.812 7.55391L22.25 3.17891C22.1363 3.11308 22.0367 3.0255 21.9569 2.92116C21.8771 2.81682 21.8186 2.69778 21.7848 2.57083C21.751 2.44388 21.7425 2.31152 21.7599 2.1813C21.7772 2.05108 21.8201 1.92556 21.886 1.81191C21.9516 1.69808 22.0389 1.5983 22.1431 1.51832C22.2473 1.43833 22.3663 1.37969 22.4932 1.34578C22.6201 1.31187 22.7525 1.30335 22.8827 1.3207C23.0129 1.33806 23.1384 1.38095 23.252 1.44691L30.814 5.82191C31.0048 5.93207 31.1538 6.10214 31.238 6.30572C31.3222 6.50929 31.3369 6.73497 31.2796 6.9477C31.2224 7.16044 31.0965 7.34832 30.9215 7.48217C30.7466 7.61602 30.5323 7.68834 30.312 7.68791ZM5.501 7.68791C5.28909 7.68828 5.08254 7.62132 4.91115 7.4967C4.73976 7.37207 4.61239 7.19622 4.54742 6.99452C4.48245 6.79281 4.48323 6.57569 4.54966 6.37446C4.61608 6.17323 4.74471 5.9983 4.917 5.87491L11.105 1.43691C11.3209 1.29369 11.5839 1.23973 11.8387 1.28639C12.0935 1.33305 12.3203 1.4767 12.4715 1.68712C12.6226 1.89755 12.6862 2.15837 12.649 2.41475C12.6118 2.67113 12.4767 2.90311 12.272 3.06191L6.083 7.49991C5.91339 7.62182 5.70987 7.68757 5.501 7.68791Z" fill="#CCD6DD"/>
<path d="M25.493 13.516L18.285 8.433C18.1148 8.31335 17.9116 8.24964 17.7035 8.25071C17.4955 8.25179 17.2929 8.31759 17.124 8.439L9.957 13.606C9.78946 13.7268 9.66346 13.8966 9.59631 14.092C9.52917 14.2873 9.52416 14.4987 9.582 14.697L12.082 23.28C12.1426 23.4877 12.2689 23.6702 12.442 23.8C12.6151 23.9298 12.8256 24 13.042 24H22C22.2094 24.0001 22.4136 23.9344 22.5837 23.8122C22.7538 23.69 22.8812 23.5175 22.948 23.319L25.865 14.652C25.9336 14.4478 25.9344 14.227 25.8674 14.0223C25.8004 13.8176 25.6691 13.64 25.493 13.516ZM1.292 19.542C1.46954 19.542 1.64388 19.4948 1.79713 19.4052C1.95038 19.3156 2.07701 19.1868 2.164 19.032L5.539 13.032C5.58993 12.9412 5.62637 12.843 5.647 12.741L6.98 6.2C7.00985 6.05467 7.00696 5.90452 6.97153 5.76045C6.9361 5.61638 6.86903 5.48201 6.77519 5.3671C6.68134 5.25219 6.56308 5.15962 6.429 5.09612C6.29491 5.03262 6.14836 4.99979 6 5H5.572C2.145 8.277 0 12.884 0 18C0 18.266 0.028 18.525 0.04 18.788L0.642 19.302C0.824 19.458 1.055 19.542 1.292 19.542ZM10.617 2.995C10.6694 3.103 10.7469 3.19682 10.8432 3.26853C10.9394 3.34024 11.0515 3.38773 11.17 3.407L17.545 4.449C17.6256 4.46102 17.7074 4.46102 17.788 4.449L23.872 3.449C23.9716 3.43286 24.0669 3.39674 24.1521 3.34283C24.2374 3.28891 24.3109 3.2183 24.3681 3.13525C24.4254 3.0522 24.4653 2.95843 24.4853 2.85957C24.5054 2.76071 24.5053 2.65881 24.485 2.56L24.193 1.117C22.2108 0.382117 20.1141 0.00394881 18 0C15.575 0 13.266 0.486 11.155 1.356L10.634 2.306C10.5764 2.41117 10.5449 2.52858 10.5419 2.64844C10.539 2.76829 10.5647 2.88712 10.617 2.995ZM31.134 5.719L29.63 5.624C29.5163 5.61708 29.4025 5.63587 29.2971 5.67898C29.1916 5.72209 29.0973 5.7884 29.021 5.873C28.9456 5.95763 28.8906 6.05843 28.8603 6.16765C28.8299 6.27687 28.825 6.3916 28.846 6.503L30.013 12.701C30.03 12.7807 30.0616 12.8567 30.106 12.925C31.598 15.429 33.258 18.226 33.487 18.707C33.511 18.791 33.549 18.786 33.601 18.858C33.741 19.053 33.973 19 34.213 19H34.22C34.418 19 34.543 19.094 35.988 18.247C35.989 18.164 36 18.083 36 18C36 13.247 34.144 8.936 31.134 5.719ZM14.541 33.376C14.5518 33.1765 14.4831 32.9809 14.35 32.832L9.85 27.832C9.79003 27.7654 9.71855 27.7102 9.639 27.669C3.754 24.6 3.645 24.564 3.573 24.539C3.49482 24.5136 3.41319 24.5005 3.331 24.5C2.794 24.5 2.636 24.565 2.146 26.524C4.40641 30.716 8.23248 33.8444 12.79 35.227L14.29 33.894C14.439 33.7614 14.5292 33.5751 14.541 33.376ZM32.374 24.809C32.2802 24.7694 32.1793 24.7495 32.0775 24.7503C31.9757 24.7512 31.8751 24.7729 31.782 24.814L25.699 27.481C25.5929 27.5269 25.499 27.5971 25.425 27.686L21.175 32.769C21.1115 32.8452 21.0638 32.9331 21.0345 33.0278C21.0051 33.1225 20.9948 33.2221 21.0041 33.3208C21.0134 33.4195 21.0421 33.5154 21.0886 33.6029C21.1351 33.6905 21.1984 33.768 21.275 33.831C21.958 34.39 22.536 34.861 23.042 35.271C27.4351 33.9825 31.1728 31.0699 33.496 27.125L32.784 25.236C32.7483 25.1407 32.6935 25.0537 32.623 24.9803C32.5525 24.9069 32.4678 24.8486 32.374 24.809Z" fill="#31373D"/>
</g>
<defs>
<clipPath id="clip0_1444_1369">
<rect width="36" height="36" fill="white"/>
</clipPath>
</defs>
</svg>
