<svg width="36" height="36" viewBox="0 0 36 36" fill="none" xmlns="http://www.w3.org/2000/svg">
<g clip-path="url(#clip0_1444_1349)">
<path d="M30.385 29.0001C30.5577 29.1859 30.6516 29.4315 30.647 29.6851C30.6423 29.9388 30.5395 30.1808 30.3601 30.3601C30.1807 30.5395 29.9387 30.6424 29.6851 30.647C29.4314 30.6517 29.1858 30.5578 29 30.3851L15.5 16.8841C15.3247 16.6989 15.2285 16.4526 15.232 16.1976C15.2355 15.9426 15.3383 15.699 15.5186 15.5187C15.699 15.3383 15.9425 15.2355 16.1975 15.232C16.4525 15.2285 16.6988 15.3247 16.884 15.5001L30.385 29.0001Z" fill="#55ACEE"/>
<path d="M35.561 33.4389C35.7043 33.5773 35.8185 33.7428 35.8972 33.9258C35.9758 34.1088 36.0171 34.3056 36.0189 34.5048C36.0206 34.704 35.9827 34.9015 35.9072 35.0858C35.8318 35.2702 35.7204 35.4376 35.5796 35.5785C35.4388 35.7193 35.2713 35.8307 35.0869 35.9061C34.9026 35.9815 34.7051 36.0195 34.5059 36.0178C34.3067 36.016 34.1099 35.9746 33.9269 35.896C33.7439 35.8174 33.5784 35.7031 33.44 35.5599L27.784 29.9039C27.6407 29.7655 27.5265 29.6 27.4478 29.417C27.3692 29.234 27.3279 29.0372 27.3261 28.838C27.3244 28.6388 27.3623 28.4413 27.4378 28.257C27.5132 28.0726 27.6246 27.9051 27.7654 27.7643C27.9062 27.6235 28.0737 27.5121 28.2581 27.4367C28.4424 27.3612 28.6399 27.3233 28.8391 27.325C29.0383 27.3267 29.2351 27.3681 29.4181 27.4467C29.6011 27.5253 29.7666 27.6396 29.905 27.7829L35.561 33.4389Z" fill="#292F33"/>
<path d="M2.447 5.20009L3.154 4.49309L15.178 16.5101L14.471 17.2171L2.447 5.20009ZM3.864 2.37009L4.571 1.66309L17.299 14.3911L16.591 15.0981L3.864 2.37009Z" fill="#99AAB5"/>
<path d="M1.035 9.44105L9.52 0.956055L10.227 1.66305L1.742 10.1481L1.035 9.44105ZM1.742 12.9761L12.35 2.37005L13.057 3.07705L2.449 13.6841L1.742 12.9761ZM3.864 15.0981L15.177 3.78505L15.884 4.49205L4.571 15.8051L3.864 15.0981ZM6.692 16.5131L16.591 6.61305L17.298 7.32006L7.398 17.2201L6.692 16.5131ZM9.52 17.9261L18.005 9.44105L18.712 10.1481L10.227 18.6341L9.52 17.9261Z" fill="#99AAB5"/>
<path d="M1.035 8.02706L1.742 7.32006L12.35 17.9261L11.643 18.6331L1.035 8.02706ZM7.4 1.66305L8.106 0.956055L18.713 11.5621L18.006 12.2701L7.4 1.66305Z" fill="#99AAB5"/>
<path d="M2.468 2.46796C-1.003 5.93996 -0.651 11.92 3.254 15.825C7.16 19.731 13.139 20.082 16.61 16.611C20.082 13.139 19.731 7.16096 15.824 3.25496C11.919 -0.65104 5.94 -1.00304 2.468 2.46796ZM15.314 15.314C12.581 18.047 7.779 17.678 4.589 14.489C1.4 11.3 1.032 6.49896 3.765 3.76496C6.499 1.03096 11.3 1.40096 14.489 4.58996C17.678 7.77896 18.048 12.581 15.314 15.314Z" fill="#55ACEE"/>
<path d="M17.298 14.3909C17.4855 14.5785 17.5908 14.8328 17.5908 15.0979C17.5908 15.3631 17.4855 15.6174 17.298 15.8049L15.883 17.2199C15.7901 17.3128 15.6798 17.3864 15.5584 17.4366C15.4371 17.4869 15.307 17.5127 15.1756 17.5126C15.0443 17.5126 14.9142 17.4867 14.7929 17.4364C14.6716 17.3861 14.5613 17.3124 14.4685 17.2194C14.3757 17.1265 14.302 17.0162 14.2518 16.8949C14.2016 16.7735 14.1758 16.6434 14.1758 16.5121C14.1759 16.2468 14.2814 15.9925 14.469 15.8049L15.883 14.3909C15.9759 14.298 16.0862 14.2242 16.2076 14.1739C16.329 14.1236 16.4591 14.0977 16.5905 14.0977C16.7219 14.0977 16.852 14.1236 16.9734 14.1739C17.0948 14.2242 17.2051 14.298 17.298 14.3909Z" fill="#226699"/>
<path d="M18.005 16.5119C18.0979 16.6047 18.1716 16.715 18.2219 16.8363C18.2722 16.9576 18.2982 17.0877 18.2982 17.219C18.2982 17.3504 18.2724 17.4805 18.2222 17.6018C18.172 17.7232 18.0983 17.8335 18.0055 17.9264C17.9127 18.0193 17.8024 18.093 17.6811 18.1433C17.5598 18.1936 17.4297 18.2195 17.2984 18.2196C17.167 18.2196 17.0369 18.1938 16.9156 18.1436C16.7942 18.0934 16.6839 18.0197 16.591 17.9269L15.884 17.2199C15.7055 17.0304 15.6078 16.7789 15.6117 16.5186C15.6156 16.2583 15.7207 16.0097 15.9048 15.8257C16.0888 15.6416 16.3374 15.5365 16.5977 15.5326C16.858 15.5287 17.1095 15.6264 17.299 15.8049L18.005 16.5119Z" fill="#226699"/>
<path d="M29.56 27.4401C30.146 28.0251 29.438 28.2681 28.853 28.8541C28.267 29.4391 28.024 30.1461 27.439 29.5611C27.2957 29.4227 27.1815 29.2572 27.1028 29.0742C27.0242 28.8912 26.9829 28.6944 26.9811 28.4952C26.9794 28.296 27.0173 28.0985 27.0928 27.9142C27.1682 27.7298 27.2796 27.5624 27.4204 27.4215C27.5612 27.2807 27.7287 27.1693 27.9131 27.0939C28.0974 27.0185 28.2949 26.9805 28.4941 26.9822C28.6933 26.984 28.8901 27.0253 29.0731 27.104C29.2561 27.1826 29.4216 27.2968 29.56 27.4401Z" fill="#226699"/>
<path d="M21.81 3.18201C21.4351 3.55706 21.2244 4.06568 21.2244 4.59601C21.2244 5.12634 21.4351 5.63495 21.81 6.01001L22.517 6.71701L23.224 6.01001L24.638 4.59601L25.347 3.88901L24.638 3.18201C24.2629 2.80707 23.7543 2.59644 23.224 2.59644C22.6937 2.59644 22.1851 2.80707 21.81 3.18201Z" fill="#BE1931"/>
<path d="M22.52 6.71594L25.35 3.88794L26.057 4.59494L23.227 7.42394L22.52 6.71594Z" fill="#99AAB5"/>
<path d="M23.225 7.42395L26.055 4.59595C27.528 5.08395 35.18 9.66495 34.916 9.92995C34.158 10.6889 33.004 10.1309 33.004 10.1309C33.004 10.1309 33.848 10.9369 33.121 11.6629C32.394 12.3889 31.59 11.5449 31.59 11.5449C31.59 11.5449 32.559 12.2859 31.739 13.1089C30.913 13.9349 30.177 12.9599 30.177 12.9599C30.177 12.9599 30.906 13.9409 30.275 14.5729C29.642 15.2039 28.761 14.3739 28.761 14.3739C28.761 14.3739 29.179 15.3719 28.419 16.1299C28.057 16.4939 23.81 8.79995 23.225 7.42395Z" fill="#E1E8ED"/>
<path d="M26.414 7.82309C26.992 7.14009 31.846 11.5501 30.994 12.4021C30.141 13.2531 25.719 8.64309 26.414 7.82309ZM28.119 15.2711C28.799 14.8281 25.047 9.45509 24.584 9.84409C24.553 9.87009 24.539 9.91609 24.531 9.97009C25.414 11.5961 26.537 13.5641 27.355 14.8371C27.691 15.1791 27.971 15.3671 28.119 15.2711ZM28.391 6.03809C28 6.50009 33.375 10.2521 33.818 9.57309C33.933 9.39509 33.648 9.03209 33.162 8.60309C31.7574 7.7071 30.3286 6.84978 28.877 6.03209C28.637 5.96709 28.459 5.95809 28.391 6.03809ZM25.402 8.89709C25.828 8.46809 30.043 13.4861 29.404 13.9901C28.766 14.4901 24.889 9.41409 25.402 8.89709ZM27.443 6.85609C27.015 7.28209 32.033 11.4961 32.535 10.8581C33.037 10.2191 27.961 6.34209 27.443 6.85609Z" fill="#CCD6DD"/>
</g>
<defs>
<clipPath id="clip0_1444_1349">
<rect width="36" height="36" fill="white"/>
</clipPath>
</defs>
</svg>
