<svg width="144" height="28" viewBox="0 0 144 28" fill="none" xmlns="http://www.w3.org/2000/svg">
<path d="M1.0625 9.53325C1.0625 9.4228 1.15204 9.33325 1.2625 9.33325H5.92202C6.03248 9.33325 6.12202 9.4228 6.12202 9.53325V27.7999C6.12202 27.9104 6.03248 27.9999 5.92202 27.9999H1.2625C1.15204 27.9999 1.0625 27.9104 1.0625 27.7999V9.53325Z" fill="#80CCE3"/>
<path d="M9.15771 9.33325H14.2172V27.9999H9.15771V9.33325Z" fill="#80CCE3"/>
<path d="M17.2529 9.53325C17.2529 9.4228 17.3425 9.33325 17.4529 9.33325H22.1125C22.2229 9.33325 22.3125 9.4228 22.3125 9.53325V27.7999C22.3125 27.9104 22.2229 27.9999 22.1125 27.9999H17.4529C17.3425 27.9999 17.2529 27.9104 17.2529 27.7999V9.53325Z" fill="#80CCE3"/>
<path d="M1.2625 13.5757C1.15204 13.5757 1.0625 13.4861 1.0625 13.3757L1.0625 9.53326C1.0625 9.4228 1.15204 9.33326 1.2625 9.33326L22.1125 9.33326C22.223 9.33326 22.3125 9.4228 22.3125 9.53326V13.3757C22.3125 13.4861 22.223 13.5757 22.1125 13.5757L1.2625 13.5757Z" fill="#80CCE3"/>
<path d="M22.3125 21.0993C22.3125 21.0367 22.3418 20.9778 22.3916 20.94L31.5541 13.9844C31.6858 13.8844 31.875 13.9783 31.875 14.1437V17.5324C31.875 17.5938 31.8468 17.6517 31.7986 17.6897L22.6361 24.8937C22.5049 24.9969 22.3125 24.9034 22.3125 24.7365V21.0993Z" fill="#80CCE3"/>
<path d="M24.4375 11.5067C24.4375 11.4442 24.4668 11.3852 24.5166 11.3474L33.6791 4.39182C33.8108 4.29185 34 4.38578 34 4.55112V8.19707C34 8.25961 33.9707 8.31855 33.9209 8.35637L24.7584 15.312C24.6267 15.4119 24.4375 15.318 24.4375 15.1527V11.5067Z" fill="#80CCE3"/>
<path d="M13.1735 0.0305872C13.2053 0.0106012 13.2422 0 13.2798 0L18.4509 0C18.65 0 18.7268 0.259083 18.56 0.367636L12.75 4.14815L6.42474 8.26393C6.39228 8.28505 6.35438 8.29629 6.31566 8.29629H0.695049C0.494295 8.29629 0.4187 8.03358 0.588752 7.92688L13.1735 0.0305872Z" fill="#80CCE3"/>
<path d="M5.3125 5.18506H14.875H26.5625L22.3125 8.29617H1.0625L5.3125 5.18506Z" fill="#80CCE3"/>
<path d="M13.0788 0.0619084C13.1116 0.0400048 13.1502 0.0283165 13.1897 0.0283165H31.2424C31.4342 0.0283165 31.516 0.271968 31.3632 0.387736L27.7845 3.09885C27.7497 3.12518 27.7073 3.13943 27.6637 3.13943H19.2309H9.12319C8.92531 3.13943 8.8476 2.88279 9.01225 2.77302L13.0788 0.0619084Z" fill="#80CCE3"/>
<path d="M27.5707 0.0423629C27.6059 0.0149112 27.6492 0 27.6938 0L32.3564 0C32.5466 0 32.6294 0.240556 32.4795 0.357637L22.3668 8.25393C22.3316 8.28138 22.2883 8.29629 22.2437 8.29629H17.5811C17.3909 8.29629 17.3081 8.05574 17.458 7.93866L22.3125 4.14815L27.5707 0.0423629Z" fill="#80CCE3"/>
<path d="M44.7727 21H38.321V3.54545H44.7642C46.5426 3.54545 48.0739 3.89489 49.358 4.59375C50.6477 5.28693 51.642 6.28693 52.3409 7.59375C53.0398 8.89489 53.3892 10.4517 53.3892 12.2642C53.3892 14.0824 53.0398 15.6449 52.3409 16.9517C51.6477 18.2585 50.6562 19.2614 49.3665 19.9602C48.0767 20.6534 46.5455 21 44.7727 21ZM42.5398 17.4034H44.6108C45.5881 17.4034 46.4148 17.2386 47.0909 16.9091C47.7727 16.5739 48.2869 16.0312 48.6335 15.2812C48.9858 14.5256 49.1619 13.5199 49.1619 12.2642C49.1619 11.0085 48.9858 10.0085 48.6335 9.2642C48.2813 8.5142 47.7614 7.97443 47.0739 7.64489C46.392 7.30966 45.5511 7.14204 44.5511 7.14204H42.5398V17.4034ZM55.8523 3.54545H61.0767L65.5085 14.3523H65.7131L70.1449 3.54545H75.3693V21H71.2614V10.2784H71.1165L66.9233 20.8892H64.2983L60.1051 10.2188H59.9602V21H55.8523V3.54545Z" fill="#80CCE3"/>
<path d="M88.62 8.61648C88.6484 7.90625 88.4411 7.35795 87.9979 6.97159C87.5604 6.58523 86.8984 6.39204 86.0121 6.39204C85.4098 6.39204 84.8871 6.47727 84.4439 6.64773C84.0007 6.8125 83.6456 7.04261 83.3786 7.33807C83.1172 7.62784 82.9553 7.96307 82.8928 8.34375C82.8303 8.65625 82.8501 8.92898 82.9524 9.16193C83.0604 9.39489 83.228 9.59659 83.4553 9.76705C83.6882 9.93182 83.9638 10.0767 84.282 10.2017C84.6001 10.321 84.9382 10.4233 85.2962 10.5085L86.7962 10.8835C87.5291 11.054 88.1882 11.2812 88.7734 11.5653C89.3643 11.8494 89.8587 12.1989 90.2564 12.6136C90.6598 13.0284 90.9439 13.517 91.1087 14.0795C91.2734 14.642 91.2962 15.2869 91.1768 16.0142C90.995 17.0824 90.5717 18.0085 89.907 18.7926C89.2422 19.571 88.37 20.1761 87.2905 20.608C86.2109 21.0341 84.9609 21.2472 83.5405 21.2472C82.1314 21.2472 80.9411 21.0312 79.9695 20.5994C78.9979 20.1676 78.2905 19.5284 77.8473 18.6818C77.4098 17.8295 77.2791 16.7756 77.4553 15.5199H81.0263C80.9638 16.1051 81.049 16.5937 81.282 16.9858C81.5206 17.3722 81.8757 17.6648 82.3473 17.8636C82.8189 18.0568 83.3729 18.1534 84.0092 18.1534C84.6399 18.1534 85.1996 18.0625 85.6882 17.8807C86.1825 17.6989 86.5831 17.446 86.8899 17.1222C87.1967 16.7983 87.3842 16.4261 87.4524 16.0057C87.5206 15.6136 87.4609 15.2841 87.2734 15.017C87.0859 14.75 86.7848 14.5227 86.37 14.3352C85.9609 14.142 85.4524 13.9716 84.8445 13.8239L83.0206 13.3466C81.6115 12.9886 80.5462 12.429 79.8246 11.6676C79.103 10.9062 78.8445 9.88068 79.049 8.59091C79.2308 7.53409 79.6712 6.6108 80.37 5.82102C81.0746 5.02557 81.9609 4.40909 83.0291 3.97159C84.103 3.52841 85.2763 3.30682 86.549 3.30682C87.8445 3.30682 88.9382 3.53125 89.8303 3.98011C90.7223 4.4233 91.3729 5.04261 91.782 5.83807C92.1911 6.63352 92.3161 7.55966 92.157 8.61648H88.62Z" fill="#95C1CE"/>
<path d="M91.9716 25.9091L94.9886 7.90909H98.5682L98.2017 10.108H98.3636C98.5795 9.75568 98.8665 9.39773 99.2244 9.03409C99.5881 8.66477 100.04 8.35795 100.58 8.11364C101.119 7.86364 101.753 7.73864 102.48 7.73864C103.44 7.73864 104.278 7.98864 104.994 8.48864C105.71 8.98295 106.227 9.73011 106.545 10.7301C106.869 11.7244 106.906 12.9716 106.656 14.4716C106.418 15.9318 105.977 17.1648 105.335 18.1705C104.699 19.1705 103.935 19.929 103.043 20.446C102.156 20.9574 101.216 21.2131 100.222 21.2131C99.517 21.2131 98.9375 21.0966 98.483 20.8636C98.0341 20.6307 97.6847 20.3381 97.4347 19.9858C97.1847 19.6278 97.0085 19.267 96.9062 18.9034H96.7699L95.6108 25.9091H91.9716ZM97.4517 14.4545C97.3267 15.233 97.321 15.9119 97.4347 16.4915C97.554 17.071 97.7926 17.5227 98.1506 17.8466C98.5085 18.1648 98.9801 18.3239 99.5653 18.3239C100.156 18.3239 100.682 18.1619 101.142 17.8381C101.602 17.5085 101.986 17.054 102.293 16.4744C102.599 15.8892 102.818 15.2159 102.949 14.4545C103.068 13.6989 103.071 13.0341 102.957 12.4602C102.844 11.8864 102.611 11.4375 102.259 11.1136C101.906 10.7898 101.429 10.6278 100.827 10.6278C100.241 10.6278 99.7159 10.7841 99.25 11.0966C98.7898 11.4091 98.4063 11.8523 98.0994 12.4261C97.7926 13 97.5767 13.6761 97.4517 14.4545ZM113.907 21.2557C112.572 21.2557 111.467 20.9716 110.592 20.4034C109.717 19.8295 109.1 19.0341 108.742 18.017C108.39 16.9943 108.325 15.804 108.546 14.446C108.762 13.1051 109.211 11.9318 109.893 10.9261C110.575 9.92045 111.441 9.1392 112.492 8.58239C113.543 8.01989 114.728 7.73864 116.046 7.73864C117.376 7.73864 118.478 8.02557 119.353 8.59943C120.228 9.16761 120.844 9.96307 121.202 10.9858C121.56 12.0085 121.629 13.1989 121.407 14.5568C121.185 15.892 120.731 17.0625 120.043 18.0682C119.356 19.0739 118.489 19.858 117.444 20.4205C116.398 20.9773 115.219 21.2557 113.907 21.2557ZM114.265 18.4432C114.879 18.4432 115.421 18.2699 115.893 17.9233C116.37 17.571 116.765 17.0937 117.077 16.4915C117.396 15.8835 117.617 15.196 117.742 14.429C117.867 13.6733 117.876 13.0028 117.768 12.4176C117.66 11.8267 117.433 11.3608 117.086 11.0199C116.745 10.679 116.276 10.5085 115.68 10.5085C115.066 10.5085 114.521 10.6847 114.043 11.0369C113.566 11.3835 113.171 11.8608 112.859 12.4688C112.546 13.0767 112.327 13.767 112.202 14.5398C112.083 15.2898 112.075 15.9602 112.177 16.5511C112.279 17.1364 112.504 17.5994 112.85 17.9403C113.197 18.2756 113.668 18.4432 114.265 18.4432ZM122.694 21L124.876 7.90909H128.396L128.012 10.1932H128.148C128.523 9.38068 129.026 8.76705 129.657 8.35227C130.293 7.93182 130.978 7.72159 131.711 7.72159C131.893 7.72159 132.083 7.73295 132.282 7.75568C132.487 7.77273 132.668 7.80114 132.827 7.84091L132.282 11.071C132.123 11.0142 131.896 10.9687 131.6 10.9347C131.31 10.8949 131.035 10.875 130.773 10.875C130.245 10.875 129.754 10.9915 129.299 11.2244C128.844 11.4517 128.461 11.7699 128.148 12.179C127.842 12.5881 127.64 13.0597 127.543 13.5938L126.325 21H122.694ZM142.315 7.90909L141.864 10.6364H133.972L134.432 7.90909H142.315ZM136.733 4.77273H140.364L138.335 16.9773C138.278 17.3125 138.287 17.5739 138.361 17.7614C138.435 17.9432 138.557 18.071 138.727 18.1449C138.903 18.2187 139.114 18.2557 139.358 18.2557C139.528 18.2557 139.702 18.2415 139.878 18.2131C140.054 18.179 140.188 18.1534 140.278 18.1364L140.415 20.8381C140.21 20.9006 139.935 20.9687 139.588 21.0426C139.247 21.1165 138.844 21.1619 138.378 21.179C137.491 21.2131 136.741 21.0966 136.128 20.8295C135.514 20.5568 135.074 20.1392 134.807 19.5767C134.54 19.0142 134.483 18.3068 134.636 17.4545L136.733 4.77273Z" fill="#5596AA"/>
<line x1="37.9905" y1="23.5" x2="143.01" y2="23.5" stroke="#80CCE3"/>
</svg>
