<svg width="28" height="30" viewBox="0 0 28 30" fill="none" xmlns="http://www.w3.org/2000/svg">
<path d="M3.5 30C2.675 30 1.9685 29.7065 1.3805 29.1195C0.7935 28.5315 0.5 27.825 0.5 27V20.175L4.625 15.4875L6.7625 17.625L3.7625 21H24.2375L21.3125 17.7L23.45 15.5625L27.5 20.175V27C27.5 27.825 27.2065 28.5315 26.6195 29.1195C26.0315 29.7065 25.325 30 24.5 30H3.5ZM3.5 27H24.5V24H3.5V27ZM11.9375 18.5625L6.65 13.275C6.075 12.7 5.794 11.994 5.807 11.157C5.819 10.319 6.1125 9.61245 6.6875 9.03745L14.0375 1.68745C14.6125 1.11245 15.325 0.812451 16.175 0.787451C17.025 0.762451 17.7375 1.03745 18.3125 1.61245L23.6 6.89995C24.175 7.47495 24.475 8.17495 24.5 8.99995C24.525 9.82495 24.25 10.525 23.675 11.1L16.175 18.6C15.6 19.175 14.894 19.456 14.057 19.443C13.219 19.431 12.5125 19.1375 11.9375 18.5625ZM21.5 9.03745L16.2125 3.74995L8.7875 11.175L14.075 16.4625L21.5 9.03745ZM3.5 27V24V27Z" fill="#80CCE3"/>
</svg>
